<?xml version="1.0" encoding="UTF-8" standalone="no"?>
<!DOCTYPE svg PUBLIC "-//W3C//DTD SVG 1.1//EN" "http://www.w3.org/Graphics/SVG/1.1/DTD/svg11.dtd">
<svg version="1.1" xmlns="http://www.w3.org/2000/svg" xmlns:xlink="http://www.w3.org/1999/xlink" preserveAspectRatio="xMidYMid meet" viewBox="0 0 640 640" width="640" height="640"><defs><path d="M79.4 162.43C168.45 25.31 352.07 -13.72 489.19 75.33C626.32 164.37 665.35 348 576.3 485.12C487.25 622.24 303.63 661.27 166.51 572.22C29.38 483.17 -9.65 299.55 79.4 162.43Z" id="b2gtk9S1ah"></path><path d="M67.78 154.88C156.83 17.76 340.45 -21.27 477.57 67.78C614.69 156.83 653.72 340.45 564.67 477.57C475.63 614.69 292 653.72 154.88 564.67C17.76 475.63 -21.27 292 67.78 154.88Z" id="arw3eMRrH"></path><path d="M333.04 297.79C349.44 307.25 355 328.36 345.46 344.88C335.92 361.41 314.86 367.14 298.47 357.67C282.07 348.21 276.5 327.1 286.04 310.58C295.58 294.05 316.64 288.32 333.04 297.79Z" id="d6Pq4Nw23y"></path><path d="M238.14 280.83L280.04 305.63" id="bDpSm3b83"></path><path d="M279.58 222.32L303 287.19" id="c3j37MgVaW"></path><path d="M330.67 370.5L346.12 415.31" id="i18yg8iCpN"></path><path d="M361.47 249.95L338.15 291.45" id="a2cbwoTrlM"></path><path d="M294.49 367.55L261.19 424.76" id="a1MvNHOlA"></path><path d="M353.94 349.78L402.33 379.47" id="c3bQosb34"></path><path d="M357.7 314.28L404.24 305.26" id="g7u0d3tmSq"></path><path d="M240.47 344.61L272.68 337.02" id="a5rXuyvGIC"></path><path d="M218.6 499.96C122.24 444.32 89.17 320.92 144.81 224.55C200.45 128.18 323.85 95.12 420.22 150.75C516.59 206.39 549.65 329.8 494.02 426.16C438.38 522.53 314.97 555.6 218.6 499.96Z" id="a1XgWaeyAQ"></path><path d="M530.33 296.15C538.98 301.15 541.95 312.24 536.96 320.89C531.96 329.55 520.88 332.52 512.22 327.52C503.57 322.52 500.6 311.44 505.59 302.78C510.59 294.13 521.67 291.16 530.33 296.15Z" id="a1cnS91H8w"></path><path d="M231.23 108.43C263.28 126.93 274.28 167.98 255.77 200.04C237.27 232.1 196.22 243.1 164.16 224.59C132.1 206.08 121.1 165.03 139.61 132.97C158.12 100.92 199.17 89.92 231.23 108.43Z" id="e3A5Q6Hgew"></path><path d="M324.44 498.9C338.94 507.28 343.92 525.85 335.54 540.35C327.17 554.85 308.6 559.83 294.1 551.46C279.59 543.08 274.62 524.51 282.99 510.01C291.36 495.51 309.94 490.53 324.44 498.9Z" id="gWI2dMs3D"></path><path d="M232.41 166.84C232.41 185.49 217.28 200.62 198.63 200.62C179.99 200.62 164.86 185.49 164.86 166.84C164.86 148.2 179.99 133.07 198.63 133.07C217.28 133.07 232.41 148.2 232.41 166.84Z" id="aiyEOqbfp"></path><path d="M195.79 146.66L181.65 157.24" id="c8IWv62YAj"></path><path d="M195.79 157.24L181.65 167.82" id="bH7h4WqYx"></path><path d="M193.91 255.83C233.22 187.75 320.41 164.39 388.49 203.69C456.57 243 479.94 330.19 440.63 398.27C401.32 466.36 314.13 489.72 246.05 450.41C177.97 411.1 154.6 323.92 193.91 255.83Z" id="ap0z1cgqo"></path><path d="M337.9 476.07C334.37 482.18 326.54 484.28 320.43 480.75C314.31 477.22 312.21 469.39 315.74 463.27C319.27 457.16 327.1 455.06 333.22 458.59C339.33 462.12 341.43 469.95 337.9 476.07Z" id="bbdvt9YCEG"></path><path d="M194.66 330.6C188.74 340.85 175.62 344.37 165.38 338.45C155.13 332.53 151.61 319.41 157.53 309.17C163.45 298.92 176.57 295.4 186.81 301.32C197.06 307.24 200.58 320.36 194.66 330.6Z" id="a4bDWAg8CC"></path><path d="M464.11 268.72C451.03 291.36 422.03 299.14 399.38 286.06C376.73 272.98 368.96 243.98 382.04 221.33C395.11 198.69 424.11 190.92 446.76 203.99C469.41 217.07 477.18 246.07 464.11 268.72Z" id="c1Xj7pQEj"></path><path d="M388.65 457.12C385.12 463.24 377.29 465.33 371.18 461.8C365.06 458.27 362.97 450.44 366.5 444.33C370.03 438.21 377.86 436.12 383.97 439.65C390.09 443.18 392.18 451.01 388.65 457.12Z" id="cBn6Vjwhu"></path><path d="M425.69 223.79L427 223.99L428.29 224.27L429.54 224.61L430.77 225.03L431.96 225.51L433.12 226.06L434.24 226.67L435.32 227.35L436.35 228.08L437.34 228.87L438.29 229.72L439.18 230.61L440.03 231.56L440.82 232.55L441.55 233.58L442.22 234.66L442.84 235.78L443.39 236.94L443.87 238.13L444.29 239.36L444.63 240.61L444.91 241.9L445.1 243.21L445.23 244.54L445.27 245.89L445.23 247.25L445.1 248.58L444.91 249.89L444.63 251.18L444.29 252.43L443.87 253.66L443.39 254.85L442.84 256.01L442.22 257.13L441.55 258.21L440.82 259.24L440.03 260.23L439.18 261.18L438.29 262.07L437.34 262.92L436.35 263.71L435.32 264.44L434.24 265.11L433.12 265.73L431.96 266.28L430.77 266.76L429.54 267.18L428.29 267.52L427 267.8L425.69 267.99L424.36 268.12L423 268.16L421.65 268.12L420.32 267.99L419.01 267.8L417.72 267.52L416.47 267.18L415.24 266.76L414.05 266.28L412.89 265.73L411.77 265.11L410.69 264.44L409.66 263.71L408.67 262.92L407.72 262.07L406.83 261.18L405.98 260.23L405.19 259.24L404.46 258.21L403.78 257.13L403.17 256.01L402.62 254.85L402.14 253.66L401.72 252.43L401.38 251.18L401.1 249.89L400.9 248.58L400.78 247.25L400.74 245.89L400.78 244.54L400.9 243.21L401.1 241.9L401.38 240.61L401.72 239.36L402.14 238.13L402.62 236.94L403.17 235.78L403.78 234.66L404.46 233.58L405.19 232.55L405.98 231.56L406.83 230.61L407.72 229.72L408.67 228.87L409.66 228.08L410.69 227.35L411.77 226.67L412.89 226.06L414.05 225.51L415.24 225.03L416.47 224.61L417.72 224.27L419.01 223.99L420.32 223.79L421.65 223.67L423 223.63L424.36 223.67L425.69 223.79ZM430.98 244.54L437.88 240.31L433.64 233.4L426.74 237.64L430.98 244.54Z" id="a8FfjX9q2V"></path></defs><g><g><g><use xlink:href="#b2gtk9S1ah" opacity="1" fill="#f4e495" fill-opacity="1"></use></g><g><g><use xlink:href="#arw3eMRrH" opacity="1" fill-opacity="0" stroke="#333333" stroke-width="2" stroke-opacity="1"></use></g></g></g><g><g><g><use xlink:href="#d6Pq4Nw23y" opacity="1" fill-opacity="0" stroke="#666666" stroke-width="2" stroke-opacity="1"></use></g></g><g><g><use xlink:href="#bDpSm3b83" opacity="1" fill-opacity="0" stroke="#666666" stroke-width="2" stroke-opacity="1"></use></g></g><g><g><use xlink:href="#c3j37MgVaW" opacity="1" fill-opacity="0" stroke="#666666" stroke-width="2" stroke-opacity="1"></use></g></g><g><g><use xlink:href="#i18yg8iCpN" opacity="1" fill-opacity="0" stroke="#666666" stroke-width="2" stroke-opacity="1"></use></g></g><g><g><use xlink:href="#a2cbwoTrlM" opacity="1" fill-opacity="0" stroke="#666666" stroke-width="2" stroke-opacity="1"></use></g></g><g><g><use xlink:href="#a1MvNHOlA" opacity="1" fill-opacity="0" stroke="#666666" stroke-width="2" stroke-opacity="1"></use></g></g><g><g><use xlink:href="#c3bQosb34" opacity="1" fill-opacity="0" stroke="#666666" stroke-width="2" stroke-opacity="1"></use></g></g><g><g><use xlink:href="#g7u0d3tmSq" opacity="1" fill-opacity="0" stroke="#666666" stroke-width="2" stroke-opacity="1"></use></g></g><g><g><use xlink:href="#a5rXuyvGIC" opacity="1" fill-opacity="0" stroke="#666666" stroke-width="2" stroke-opacity="1"></use></g></g></g><g><g><g><use xlink:href="#a1XgWaeyAQ" opacity="1" fill-opacity="0" stroke="#666666" stroke-width="1" stroke-opacity="1"></use></g></g><g><use xlink:href="#a1cnS91H8w" opacity="1" fill="#f4e495" fill-opacity="1"></use></g><g><use xlink:href="#e3A5Q6Hgew" opacity="1" fill="#f4e495" fill-opacity="1"></use></g><g><use xlink:href="#gWI2dMs3D" opacity="1" fill="#f4e495" fill-opacity="1"></use></g></g><g><g><g><use xlink:href="#aiyEOqbfp" opacity="1" fill-opacity="0" stroke="#777777" stroke-width="2" stroke-opacity="1"></use></g><g><filter id="shadow9863994" x="155.86" y="124.07" width="86.55" height="86.55" filterUnits="userSpaceOnUse" primitiveUnits="userSpaceOnUse"><feFlood></feFlood><feComposite in2="SourceAlpha" operator="out"></feComposite><feGaussianBlur stdDeviation="1"></feGaussianBlur><feOffset dx="1" dy="1" result="afterOffset"></feOffset><feFlood flood-color="#777777" flood-opacity="0.8"></feFlood><feComposite in2="afterOffset" operator="in"></feComposite><feMorphology operator="dilate" radius="1"></feMorphology><feComposite in2="SourceAlpha" operator="in"></feComposite></filter><path d="M232.41 166.84C232.41 185.49 217.28 200.62 198.63 200.62C179.99 200.62 164.86 185.49 164.86 166.84C164.86 148.2 179.99 133.07 198.63 133.07C217.28 133.07 232.41 148.2 232.41 166.84Z" id="bgHLR1dXf" fill="white" fill-opacity="1" filter="url(#shadow9863994)"></path></g></g><g><g><use xlink:href="#c8IWv62YAj" opacity="1" fill-opacity="0" stroke="#777777" stroke-width="2" stroke-opacity="1"></use></g><g><filter id="shadow11118556" x="172.65" y="137.66" width="33.13" height="29.58" filterUnits="userSpaceOnUse" primitiveUnits="userSpaceOnUse"><feFlood></feFlood><feComposite in2="SourceAlpha" operator="out"></feComposite><feGaussianBlur stdDeviation="1"></feGaussianBlur><feOffset dx="1" dy="1" result="afterOffset"></feOffset><feFlood flood-color="#777777" flood-opacity="0.8"></feFlood><feComposite in2="afterOffset" operator="in"></feComposite><feMorphology operator="dilate" radius="1"></feMorphology><feComposite in2="SourceAlpha" operator="in"></feComposite></filter><path d="M195.79 146.66L181.65 157.24" id="b2OlQKQ4oU" fill="none" stroke="white" filter="url(#shadow11118556)"></path></g></g><g><g><use xlink:href="#bH7h4WqYx" opacity="1" fill-opacity="0" stroke="#777777" stroke-width="2" stroke-opacity="1"></use></g><g><filter id="shadow13010766" x="172.65" y="148.24" width="33.13" height="29.58" filterUnits="userSpaceOnUse" primitiveUnits="userSpaceOnUse"><feFlood></feFlood><feComposite in2="SourceAlpha" operator="out"></feComposite><feGaussianBlur stdDeviation="1"></feGaussianBlur><feOffset dx="1" dy="1" result="afterOffset"></feOffset><feFlood flood-color="#777777" flood-opacity="0.8"></feFlood><feComposite in2="afterOffset" operator="in"></feComposite><feMorphology operator="dilate" radius="1"></feMorphology><feComposite in2="SourceAlpha" operator="in"></feComposite></filter><path d="M195.79 157.24L181.65 167.82" id="g1fStRhyMZ" fill="none" stroke="white" filter="url(#shadow13010766)"></path></g></g></g><g><g><g><use xlink:href="#ap0z1cgqo" opacity="1" fill-opacity="0" stroke="#666666" stroke-width="1" stroke-opacity="1"></use></g></g><g><use xlink:href="#bbdvt9YCEG" opacity="1" fill="#f4e495" fill-opacity="1"></use></g><g><use xlink:href="#a4bDWAg8CC" opacity="1" fill="#f4e495" fill-opacity="1"></use></g><g><use xlink:href="#c1Xj7pQEj" opacity="1" fill="#f4e495" fill-opacity="1"></use></g><g><use xlink:href="#cBn6Vjwhu" opacity="1" fill="#f4e495" fill-opacity="1"></use></g></g><g><g><use xlink:href="#a8FfjX9q2V" opacity="1" fill-opacity="0" stroke="#777777" stroke-width="1" stroke-opacity="1"></use></g><g><filter id="shadow9068485" x="392.74" y="215.63" width="61.52" height="60.52" filterUnits="userSpaceOnUse" primitiveUnits="userSpaceOnUse"><feFlood></feFlood><feComposite in2="SourceAlpha" operator="out"></feComposite><feGaussianBlur stdDeviation="1"></feGaussianBlur><feOffset dx="-1" dy="0" result="afterOffset"></feOffset><feFlood flood-color="#777777" flood-opacity="0.8"></feFlood><feComposite in2="afterOffset" operator="in"></feComposite><feMorphology operator="dilate" radius="0"></feMorphology><feComposite in2="SourceAlpha" operator="in"></feComposite></filter><path d="M425.69 223.79L427 223.99L428.29 224.27L429.54 224.61L430.77 225.03L431.96 225.51L433.12 226.06L434.24 226.67L435.32 227.35L436.35 228.08L437.34 228.87L438.29 229.72L439.18 230.61L440.03 231.56L440.82 232.55L441.55 233.58L442.22 234.66L442.84 235.78L443.39 236.94L443.87 238.13L444.29 239.36L444.63 240.61L444.91 241.9L445.1 243.21L445.23 244.54L445.27 245.89L445.23 247.25L445.1 248.58L444.91 249.89L444.63 251.18L444.29 252.43L443.87 253.66L443.39 254.85L442.84 256.01L442.22 257.13L441.55 258.21L440.82 259.24L440.03 260.23L439.18 261.18L438.29 262.07L437.34 262.92L436.35 263.71L435.32 264.44L434.24 265.11L433.12 265.73L431.96 266.28L430.77 266.76L429.54 267.18L428.29 267.52L427 267.8L425.69 267.99L424.36 268.12L423 268.16L421.65 268.12L420.32 267.99L419.01 267.8L417.72 267.52L416.47 267.18L415.24 266.76L414.05 266.28L412.89 265.73L411.77 265.11L410.69 264.44L409.66 263.71L408.67 262.92L407.72 262.07L406.83 261.18L405.98 260.23L405.19 259.24L404.46 258.21L403.78 257.13L403.17 256.01L402.62 254.85L402.14 253.66L401.72 252.43L401.38 251.18L401.1 249.89L400.9 248.58L400.78 247.25L400.74 245.89L400.78 244.54L400.9 243.21L401.1 241.9L401.38 240.61L401.72 239.36L402.14 238.13L402.62 236.94L403.17 235.78L403.78 234.66L404.46 233.58L405.19 232.55L405.98 231.56L406.83 230.61L407.72 229.72L408.67 228.87L409.66 228.08L410.69 227.35L411.77 226.67L412.89 226.06L414.05 225.51L415.24 225.03L416.47 224.61L417.72 224.27L419.01 223.99L420.32 223.79L421.65 223.67L423 223.63L424.36 223.67L425.69 223.79ZM430.98 244.54L437.88 240.31L433.64 233.4L426.74 237.64L430.98 244.54Z" id="b2MHccHyn" fill="white" fill-opacity="1" filter="url(#shadow9068485)"></path></g></g></g></svg>