<?xml version="1.0" encoding="UTF-8" standalone="no"?>
<!DOCTYPE svg PUBLIC "-//W3C//DTD SVG 1.1//EN" "http://www.w3.org/Graphics/SVG/1.1/DTD/svg11.dtd">
<svg version="1.1" xmlns="http://www.w3.org/2000/svg" xmlns:xlink="http://www.w3.org/1999/xlink" preserveAspectRatio="xMidYMid meet" viewBox="0 0 640 640" width="128" height="128"><defs><path d="M123.57 202.82C197 89.74 348.42 57.56 461.49 130.99C574.57 204.42 606.75 355.84 533.32 468.91C459.89 581.98 308.47 614.17 195.4 540.74C82.33 467.31 50.14 315.89 123.57 202.82Z" id="avFWYPghX"></path><path d="M113.99 196.59C187.42 83.52 338.83 51.33 451.91 124.76C564.98 198.2 597.17 349.61 523.74 462.69C450.3 575.76 298.89 607.94 185.81 534.51C72.74 461.08 40.56 309.67 113.99 196.59Z" id="b5WqnoHUv8"></path><path d="M332.73 314.43C346.25 322.24 350.84 339.64 342.97 353.27C335.1 366.9 317.74 371.62 304.22 363.82C290.69 356.01 286.1 338.61 293.97 324.98C301.84 311.35 319.2 306.63 332.73 314.43Z" id="e4pjllmvA7"></path><path d="M254.47 300.45L289.02 320.9" id="d4Gq1ixVtR"></path><path d="M288.64 252.2L307.95 305.7" id="o3DQ5VOLJN"></path><path d="M330.77 374.4L343.52 411.35" id="c1Eq1tNvhL"></path><path d="M356.17 274.99L336.94 309.21" id="b9WPjSnFh"></path><path d="M300.94 371.97L273.47 419.14" id="b2ZbLS0vMr"></path><path d="M349.96 357.31L389.86 381.79" id="afi7tqjOn"></path><path d="M353.07 328.03L391.44 320.59" id="etAIlmsi2"></path><path d="M256.39 353.04L282.95 346.79" id="aozgmz8e"></path><path d="M238.36 481.15C158.9 435.27 131.63 333.51 177.51 254.04C223.39 174.58 325.15 147.31 404.62 193.19C484.08 239.07 511.35 340.83 465.47 420.3C419.59 499.76 317.83 527.03 238.36 481.15Z" id="a2TkBm8DBX"></path><path d="M495.41 313.09C502.55 317.21 505 326.35 500.88 333.49C496.76 340.62 487.62 343.07 480.48 338.95C473.34 334.83 470.9 325.69 475.02 318.55C479.14 311.42 488.28 308.97 495.41 313.09Z" id="f2nnZGkLYG"></path><path d="M248.77 158.28C275.2 173.55 284.27 207.4 269.01 233.83C253.75 260.27 219.9 269.34 193.46 254.07C167.03 238.81 157.96 204.96 173.22 178.53C188.48 152.09 222.34 143.02 248.77 158.28Z" id="aoIQSTah"></path><path d="M325.63 480.28C337.59 487.18 341.7 502.5 334.79 514.46C327.89 526.42 312.57 530.52 300.61 523.61C288.65 516.71 284.55 501.4 291.45 489.44C298.36 477.48 313.67 473.37 325.63 480.28Z" id="e2FfFNEuGZ"></path><path d="M249.74 206.46C249.74 221.83 237.26 234.31 221.89 234.31C206.52 234.31 194.04 221.83 194.04 206.46C194.04 191.08 206.52 178.6 221.89 178.6C237.26 178.6 249.74 191.08 249.74 206.46Z" id="bbJBs4EYQ"></path><path d="M219.54 189.81L207.89 198.54" id="a11YadoSr"></path><path d="M219.54 198.54L207.89 207.26" id="a1AdPZwBMr"></path><path d="M218 279.84C250.41 223.69 322.31 204.43 378.45 236.84C434.6 269.26 453.86 341.16 421.45 397.3C389.03 453.44 317.13 472.71 260.99 440.29C204.85 407.88 185.58 335.98 218 279.84Z" id="k1lEleNqS"></path><path d="M336.73 461.45C333.82 466.49 327.37 468.22 322.32 465.31C317.28 462.4 315.55 455.94 318.46 450.9C321.37 445.85 327.83 444.12 332.87 447.04C337.92 449.95 339.65 456.4 336.73 461.45Z" id="f5OVRDE4O3"></path><path d="M218.62 341.5C213.74 349.94 202.92 352.84 194.47 347.97C186.02 343.09 183.12 332.27 188 323.82C192.88 315.37 203.7 312.47 212.14 317.35C220.59 322.23 223.49 333.05 218.62 341.5Z" id="a27HjxBOUM"></path><path d="M440.8 290.46C430.02 309.14 406.11 315.55 387.43 304.76C368.75 293.98 362.35 270.07 373.13 251.39C383.91 232.71 407.83 226.31 426.5 237.09C445.18 247.87 451.59 271.79 440.8 290.46Z" id="d6RSkd0wQ"></path><path d="M378.59 445.82C375.68 450.87 369.22 452.6 364.18 449.69C359.13 446.77 357.4 440.32 360.31 435.27C363.23 430.23 369.68 428.5 374.73 431.41C379.77 434.32 381.5 440.78 378.59 445.82Z" id="ml3hX53Fe"></path><path d="M409.51 253.47L410.77 253.69L411.99 254L413.19 254.39L414.34 254.85L415.46 255.39L416.53 256.01L417.55 256.69L418.53 257.43L419.45 258.24L420.32 259.11L421.12 260.03L421.87 261L422.55 262.03L423.16 263.1L423.7 264.22L424.17 265.37L424.56 266.56L424.86 267.79L425.09 269.05L425.22 270.33L425.27 271.64L425.22 272.95L425.09 274.24L424.86 275.5L424.56 276.72L424.17 277.92L423.7 279.07L423.16 280.19L422.55 281.26L421.87 282.28L421.12 283.26L420.32 284.18L419.45 285.05L418.53 285.85L417.55 286.6L416.53 287.28L415.46 287.89L414.34 288.43L413.19 288.9L411.99 289.29L410.77 289.59L409.51 289.82L408.22 289.95L406.91 290L405.6 289.95L404.32 289.82L403.06 289.59L401.83 289.29L400.64 288.9L399.49 288.43L398.37 287.89L397.3 287.28L396.27 286.6L395.3 285.85L394.38 285.05L393.51 284.18L392.7 283.26L391.96 282.28L391.28 281.26L390.66 280.19L390.12 279.07L389.66 277.92L389.27 276.72L388.96 275.5L388.74 274.24L388.6 272.95L388.56 271.64L388.6 270.33L388.74 269.05L388.96 267.79L389.27 266.56L389.66 265.37L390.12 264.22L390.66 263.1L391.28 262.03L391.96 261L392.7 260.03L393.51 259.11L394.38 258.24L395.3 257.43L396.27 256.69L397.3 256.01L398.37 255.39L399.49 254.85L400.64 254.39L401.83 254L403.06 253.69L404.32 253.47L405.6 253.33L406.91 253.29L408.22 253.33L409.51 253.47ZM413.49 270.53L419.18 267.03L415.68 261.34L409.99 264.84L413.49 270.53Z" id="e21z9wQBuM"></path></defs><g><g><g><use xlink:href="#avFWYPghX" opacity="1" fill="#f4e495" fill-opacity="1"></use></g><g><g><use xlink:href="#b5WqnoHUv8" opacity="1" fill-opacity="0" stroke="#333333" stroke-width="2" stroke-opacity="1"></use></g></g></g><g><g><g><use xlink:href="#e4pjllmvA7" opacity="1" fill-opacity="0" stroke="#666666" stroke-width="2" stroke-opacity="1"></use></g></g><g><g><use xlink:href="#d4Gq1ixVtR" opacity="1" fill-opacity="0" stroke="#666666" stroke-width="2" stroke-opacity="1"></use></g></g><g><g><use xlink:href="#o3DQ5VOLJN" opacity="1" fill-opacity="0" stroke="#666666" stroke-width="2" stroke-opacity="1"></use></g></g><g><g><use xlink:href="#c1Eq1tNvhL" opacity="1" fill-opacity="0" stroke="#666666" stroke-width="2" stroke-opacity="1"></use></g></g><g><g><use xlink:href="#b9WPjSnFh" opacity="1" fill-opacity="0" stroke="#666666" stroke-width="2" stroke-opacity="1"></use></g></g><g><g><use xlink:href="#b2ZbLS0vMr" opacity="1" fill-opacity="0" stroke="#666666" stroke-width="2" stroke-opacity="1"></use></g></g><g><g><use xlink:href="#afi7tqjOn" opacity="1" fill-opacity="0" stroke="#666666" stroke-width="2" stroke-opacity="1"></use></g></g><g><g><use xlink:href="#etAIlmsi2" opacity="1" fill-opacity="0" stroke="#666666" stroke-width="2" stroke-opacity="1"></use></g></g><g><g><use xlink:href="#aozgmz8e" opacity="1" fill-opacity="0" stroke="#666666" stroke-width="2" stroke-opacity="1"></use></g></g></g><g><g><g><use xlink:href="#a2TkBm8DBX" opacity="1" fill-opacity="0" stroke="#666666" stroke-width="1" stroke-opacity="1"></use></g></g><g><use xlink:href="#f2nnZGkLYG" opacity="1" fill="#f4e495" fill-opacity="1"></use></g><g><use xlink:href="#aoIQSTah" opacity="1" fill="#f4e495" fill-opacity="1"></use></g><g><use xlink:href="#e2FfFNEuGZ" opacity="1" fill="#f4e495" fill-opacity="1"></use></g></g><g><g><g><use xlink:href="#bbJBs4EYQ" opacity="1" fill-opacity="0" stroke="#777777" stroke-width="2" stroke-opacity="1"></use></g><g><filter id="shadow15726469" x="185.04" y="169.6" width="74.7" height="74.7" filterUnits="userSpaceOnUse" primitiveUnits="userSpaceOnUse"><feFlood></feFlood><feComposite in2="SourceAlpha" operator="out"></feComposite><feGaussianBlur stdDeviation="1"></feGaussianBlur><feOffset dx="1" dy="1" result="afterOffset"></feOffset><feFlood flood-color="#777777" flood-opacity="0.8"></feFlood><feComposite in2="afterOffset" operator="in"></feComposite><feMorphology operator="dilate" radius="1"></feMorphology><feComposite in2="SourceAlpha" operator="in"></feComposite></filter><path d="M249.74 206.46C249.74 221.83 237.26 234.31 221.89 234.31C206.52 234.31 194.04 221.83 194.04 206.46C194.04 191.08 206.52 178.6 221.89 178.6C237.26 178.6 249.74 191.08 249.74 206.46Z" id="dbvHpvsXL" fill="white" fill-opacity="1" filter="url(#shadow15726469)"></path></g></g><g><g><use xlink:href="#a11YadoSr" opacity="1" fill-opacity="0" stroke="#777777" stroke-width="2" stroke-opacity="1"></use></g><g><filter id="shadow14495496" x="198.89" y="180.81" width="30.65" height="27.72" filterUnits="userSpaceOnUse" primitiveUnits="userSpaceOnUse"><feFlood></feFlood><feComposite in2="SourceAlpha" operator="out"></feComposite><feGaussianBlur stdDeviation="1"></feGaussianBlur><feOffset dx="1" dy="1" result="afterOffset"></feOffset><feFlood flood-color="#777777" flood-opacity="0.8"></feFlood><feComposite in2="afterOffset" operator="in"></feComposite><feMorphology operator="dilate" radius="1"></feMorphology><feComposite in2="SourceAlpha" operator="in"></feComposite></filter><path d="M219.54 189.81L207.89 198.54" id="e2ww8aM0iw" fill="none" stroke="white" filter="url(#shadow14495496)"></path></g></g><g><g><use xlink:href="#a1AdPZwBMr" opacity="1" fill-opacity="0" stroke="#777777" stroke-width="2" stroke-opacity="1"></use></g><g><filter id="shadow15262486" x="198.89" y="189.54" width="30.65" height="27.72" filterUnits="userSpaceOnUse" primitiveUnits="userSpaceOnUse"><feFlood></feFlood><feComposite in2="SourceAlpha" operator="out"></feComposite><feGaussianBlur stdDeviation="1"></feGaussianBlur><feOffset dx="1" dy="1" result="afterOffset"></feOffset><feFlood flood-color="#777777" flood-opacity="0.8"></feFlood><feComposite in2="afterOffset" operator="in"></feComposite><feMorphology operator="dilate" radius="1"></feMorphology><feComposite in2="SourceAlpha" operator="in"></feComposite></filter><path d="M219.54 198.54L207.89 207.26" id="b7FmycLG9D" fill="none" stroke="white" filter="url(#shadow15262486)"></path></g></g></g><g><g><g><use xlink:href="#k1lEleNqS" opacity="1" fill-opacity="0" stroke="#666666" stroke-width="1" stroke-opacity="1"></use></g></g><g><use xlink:href="#f5OVRDE4O3" opacity="1" fill="#f4e495" fill-opacity="1"></use></g><g><use xlink:href="#a27HjxBOUM" opacity="1" fill="#f4e495" fill-opacity="1"></use></g><g><use xlink:href="#d6RSkd0wQ" opacity="1" fill="#f4e495" fill-opacity="1"></use></g><g><use xlink:href="#ml3hX53Fe" opacity="1" fill="#f4e495" fill-opacity="1"></use></g></g><g><g><use xlink:href="#e21z9wQBuM" opacity="1" fill-opacity="0" stroke="#777777" stroke-width="1" stroke-opacity="1"></use></g><g><filter id="shadow13961946" x="380.56" y="245.29" width="53.71" height="52.71" filterUnits="userSpaceOnUse" primitiveUnits="userSpaceOnUse"><feFlood></feFlood><feComposite in2="SourceAlpha" operator="out"></feComposite><feGaussianBlur stdDeviation="1"></feGaussianBlur><feOffset dx="-1" dy="0" result="afterOffset"></feOffset><feFlood flood-color="#777777" flood-opacity="0.8"></feFlood><feComposite in2="afterOffset" operator="in"></feComposite><feMorphology operator="dilate" radius="0"></feMorphology><feComposite in2="SourceAlpha" operator="in"></feComposite></filter><path d="M409.51 253.47L410.77 253.69L411.99 254L413.19 254.39L414.34 254.85L415.46 255.39L416.53 256.01L417.55 256.69L418.53 257.43L419.45 258.24L420.32 259.11L421.12 260.03L421.87 261L422.55 262.03L423.16 263.1L423.7 264.22L424.17 265.37L424.56 266.56L424.86 267.79L425.09 269.05L425.22 270.33L425.27 271.64L425.22 272.95L425.09 274.24L424.86 275.5L424.56 276.72L424.17 277.92L423.7 279.07L423.16 280.19L422.55 281.26L421.87 282.28L421.12 283.26L420.32 284.18L419.45 285.05L418.53 285.85L417.55 286.6L416.53 287.28L415.46 287.89L414.34 288.43L413.19 288.9L411.99 289.29L410.77 289.59L409.51 289.82L408.22 289.95L406.91 290L405.6 289.95L404.32 289.82L403.06 289.59L401.83 289.29L400.64 288.9L399.49 288.43L398.37 287.89L397.3 287.28L396.27 286.6L395.3 285.85L394.38 285.05L393.51 284.18L392.7 283.26L391.96 282.28L391.28 281.26L390.66 280.19L390.12 279.07L389.66 277.92L389.27 276.72L388.96 275.5L388.74 274.24L388.6 272.95L388.56 271.64L388.6 270.33L388.74 269.05L388.96 267.79L389.27 266.56L389.66 265.37L390.12 264.22L390.66 263.1L391.28 262.03L391.96 261L392.7 260.03L393.51 259.11L394.38 258.24L395.3 257.43L396.27 256.69L397.3 256.01L398.37 255.39L399.49 254.85L400.64 254.39L401.83 254L403.06 253.69L404.32 253.47L405.6 253.33L406.91 253.29L408.22 253.33L409.51 253.47ZM413.49 270.53L419.18 267.03L415.68 261.34L409.99 264.84L413.49 270.53Z" id="cfCtzFy1" fill="white" fill-opacity="1" filter="url(#shadow13961946)"></path></g></g></g></svg>